<svg width="1377" height="243" viewBox="0 0 1377 243" fill="none" xmlns="http://www.w3.org/2000/svg">
<g clip-path="url(#clip0_276_916)">
<path d="M140.225 117.917C140.225 130.065 130.321 139.955 118.145 139.955C117.587 139.955 117.024 139.934 116.462 139.892C105.695 139.094 96.9586 130.39 96.1381 119.639C95.6595 113.434 97.7266 107.507 101.955 102.956C106.126 98.4621 112.028 95.8845 118.145 95.8845C130.321 95.8845 140.225 105.764 140.225 117.917Z" fill="white"/>
<path d="M200.453 211.445V229.64C200.453 236.874 194.557 242.765 187.304 242.765H126.18C122.667 242.765 119.364 241.394 116.881 238.917L70.6064 192.735C66.7352 188.866 61.5807 186.74 56.1001 186.74H13.1493C5.89614 186.74 0 180.85 0 173.616V117.918C0 86.4196 12.2867 56.8064 34.6036 34.5322C56.9206 12.2632 86.5906 0 118.144 0C143.048 0 166.801 7.59099 186.846 21.954C189.954 24.1799 191.916 27.6499 192.227 31.4769C192.542 35.3354 191.148 39.1151 188.408 41.8502L153.773 76.4191C151.301 78.8864 148.008 80.2461 144.495 80.2461C142.37 80.2461 140.245 79.7263 138.346 78.7499C132.171 75.5686 125.181 73.8887 118.144 73.8887C106.357 73.8887 95.2797 78.4664 86.9483 86.7819C77.9857 95.7325 73.4151 107.644 74.0883 120.322C74.6195 130.301 78.6011 139.893 85.302 147.326C93.8122 156.76 105.473 161.957 118.144 161.957C125.181 161.957 132.166 160.272 138.346 157.09C140.245 156.114 142.37 155.594 144.49 155.594C148.008 155.594 151.301 156.954 153.773 159.416L196.603 202.164C199.085 204.642 200.453 207.938 200.453 211.445Z" fill="white"/>
<path d="M83.8503 240.486C83.6294 241.021 82.73 242.759 80.4473 242.759H8.94151C4.01316 242.759 0 238.754 0 233.835V217.655C0 212.731 4.01316 208.731 8.94151 208.731H51.5399C53.9278 208.731 56.1737 209.655 57.8621 211.34L83.0509 236.486C84.6656 238.092 84.0712 239.956 83.8503 240.486Z" fill="white"/>
<path d="M232.407 103.848C230.708 105.88 228.21 107.051 225.554 107.051H163.679C162.074 107.051 160.665 106.011 160.165 104.463L160.018 104.011C159.56 102.625 159.886 101.15 160.88 100.163L205.53 55.5936C207.224 53.9032 209.464 52.974 211.852 52.974C215.019 52.974 217.88 54.5804 219.505 57.2734C226.8 69.3791 231.797 82.561 234.343 96.462C234.827 99.1026 234.122 101.796 232.407 103.848Z" fill="white"/>
<path d="M234.166 140.307C231.563 153.872 226.624 166.755 219.481 178.593C217.866 181.275 215.01 182.882 211.849 182.882C209.461 182.882 207.216 181.947 205.522 180.257L160.867 135.687C159.873 134.7 159.542 133.23 159.999 131.86C159.999 131.855 160.031 131.766 160.036 131.761C160.446 130.511 161.645 129.676 163.013 129.676H225.388C228.06 129.676 230.569 130.852 232.273 132.91C233.982 134.973 234.671 137.672 234.166 140.307Z" fill="white"/>
</g>
<path d="M1336.69 205.025C1323.25 205.025 1313.14 201.707 1306.34 195.072C1299.54 188.436 1296.15 178.726 1296.15 165.94V105.784C1296.15 103.88 1294.6 102.336 1292.7 102.336H1280.66C1278.75 102.336 1277.21 100.792 1277.21 98.8874V88.305C1277.21 86.4006 1278.75 84.8567 1280.66 84.8567H1292.7C1294.6 84.8567 1296.15 83.3128 1296.15 81.4083V61.1534C1296.15 59.6547 1297.11 58.3276 1298.54 57.8698L1317.38 51.828C1319.6 51.1141 1321.88 52.7743 1321.88 55.1116V81.4083C1321.88 83.3128 1323.42 84.8567 1325.33 84.8567H1353.39C1355.29 84.8567 1356.84 86.4006 1356.84 88.305V98.8874C1356.84 100.792 1355.29 102.336 1353.39 102.336H1325.33C1323.42 102.336 1321.88 103.88 1321.88 105.784V167.639C1321.88 174.76 1323.17 179.859 1325.76 182.934C1328.51 186.009 1332.64 187.546 1338.14 187.546C1344.47 187.546 1349.46 186.331 1353.11 183.901C1353.96 183.331 1354.41 182.338 1354.41 181.309V175.943C1354.41 174.039 1355.95 172.495 1357.86 172.495H1373.05C1374.96 172.495 1376.5 174.039 1376.5 175.943V189.348C1376.5 190.361 1376.06 191.327 1375.27 191.963C1370.27 196.001 1364.85 199.141 1359.02 201.384C1352.71 203.811 1345.27 205.025 1336.69 205.025Z" fill="white"/>
<path d="M1189.45 205.025C1176.18 205.025 1166.14 201.546 1159.35 194.586C1152.55 187.627 1149.15 177.674 1149.15 164.726V111.804C1149.15 108.729 1148.42 106.463 1146.97 105.006C1145.67 103.55 1143.49 102.821 1140.41 102.821H1136.82C1134.91 102.821 1133.37 101.278 1133.37 99.373V88.3052C1133.37 86.4007 1134.91 84.8568 1136.82 84.8568H1171.68C1173.58 84.8568 1175.13 86.4007 1175.13 88.3052V164.484C1175.13 180.182 1182.73 188.032 1197.95 188.032C1206.2 188.032 1212.84 185.604 1217.85 180.749C1222.87 175.894 1225.38 168.934 1225.38 159.871V111.804C1225.38 108.729 1224.73 106.463 1223.44 105.006C1222.3 103.55 1220.28 102.821 1217.37 102.821H1214.02C1212.11 102.821 1210.57 101.278 1210.57 99.373V88.3052C1210.57 86.4007 1212.11 84.8568 1214.02 84.8568H1247.66C1249.57 84.8568 1251.11 86.4007 1251.11 88.3052V174.437C1251.11 177.512 1251.84 179.778 1253.3 181.234C1254.75 182.529 1257.02 183.176 1260.09 183.176H1261.5C1263.41 183.176 1264.95 184.72 1264.95 186.625V197.935C1264.95 199.84 1263.41 201.384 1261.5 201.384H1237.26C1235.48 201.384 1233.99 200.027 1233.83 198.252L1233.48 194.416C1233.19 191.287 1229.05 190.034 1226.76 192.186C1223.03 195.696 1218.92 198.438 1214.45 200.413C1207.66 203.488 1199.32 205.025 1189.45 205.025Z" fill="white"/>
<path d="M1061.4 205.025C1041.66 205.025 1026.77 199.603 1016.73 188.76C1006.7 177.916 1001.68 162.784 1001.68 143.363C1001.68 123.78 1006.62 108.567 1016.49 97.7232C1026.53 86.7179 1041.5 81.2152 1061.4 81.2152C1081.31 81.2152 1096.2 86.7179 1106.07 97.7232C1116.11 108.567 1121.12 123.78 1121.12 143.363C1121.12 162.784 1116.11 177.916 1106.07 188.76C1096.04 199.603 1081.15 205.025 1061.4 205.025ZM1061.4 186.818C1073.06 186.818 1081.71 183.257 1087.38 176.136C1093.04 169.015 1095.88 158.091 1095.88 143.363C1095.88 128.473 1093.04 117.468 1087.38 110.347C1081.71 103.064 1073.06 99.4225 1061.4 99.4225C1049.75 99.4225 1041.09 103.064 1035.43 110.347C1029.92 117.468 1027.17 128.473 1027.17 143.363C1027.17 158.091 1029.92 169.015 1035.43 176.136C1041.09 183.257 1049.75 186.818 1061.4 186.818Z" fill="white"/>
<path d="M937.927 205.025C926.274 205.025 915.673 202.678 906.124 197.985C896.738 193.292 889.293 186.332 883.79 177.107C878.287 167.882 875.536 156.877 875.536 144.091C875.536 123.699 880.958 108.162 891.801 97.4804C902.807 86.637 917.939 81.2152 937.198 81.2152C947.718 81.2152 956.539 82.3481 963.66 84.6139C970.289 86.7231 976.707 90.0243 982.915 94.5176C983.791 95.1512 984.295 96.1734 984.295 97.2541V115.395C984.295 117.3 982.751 118.844 980.846 118.844H965.166C963.261 118.844 961.718 117.3 961.718 115.395V107.504C961.718 106.26 961.052 105.105 959.948 104.534C956.863 102.939 953.892 101.802 951.036 101.122C947.637 100.313 943.025 99.9081 937.198 99.9081C926.355 99.9081 917.534 103.55 910.737 110.832C904.101 117.954 900.784 129.04 900.784 144.091C900.784 158.333 904.587 168.934 912.194 175.893C919.962 182.691 929.834 186.09 941.811 186.09C949.256 186.09 955.568 185.442 960.746 184.147C964.946 183.129 968.945 181.561 972.745 179.442C974.449 178.492 976.637 178.977 977.65 180.645L983.094 189.622C984.041 191.183 983.612 193.219 982.067 194.192C976.134 197.928 970.079 200.568 963.902 202.112C956.943 204.054 948.285 205.025 937.927 205.025Z" fill="white"/>
<path d="M803.396 205.025C792.067 205.025 781.305 203.407 771.109 200.17C761.55 197.135 753.271 193.105 746.272 188.078C745.394 187.448 744.89 186.425 744.89 185.344V166.718C744.89 164.813 746.434 163.27 748.338 163.27H767.418C769.322 163.27 770.866 164.813 770.866 166.718V177.097C770.866 178.308 771.496 179.44 772.564 180.012C776.269 181.996 780.64 183.617 785.675 184.876C791.663 186.332 797.732 187.06 803.882 187.06C813.592 187.06 820.956 185.037 825.973 180.991C830.991 176.783 833.499 170.876 833.499 163.27C833.499 157.929 832.124 153.478 829.372 149.917C826.783 146.357 823.06 143.282 818.205 140.692C813.35 138.103 806.633 135.109 798.056 131.71C786.079 127.017 776.449 122.566 769.167 118.358C761.884 114.15 756.219 109.214 752.173 103.549C748.289 97.7231 746.347 90.6829 746.347 82.4289C746.347 68.6722 751.607 58.3143 762.126 51.355C772.646 44.2339 786.16 40.6734 802.668 40.6734C813.512 40.6734 823.384 42.2109 832.285 45.2859C840.727 48.1502 848.046 51.857 854.242 56.4064C855.101 57.0375 855.591 58.0482 855.591 59.1144V76.5529C855.591 78.4574 854.047 80.0013 852.142 80.0013H833.063C831.159 80.0013 829.615 78.4574 829.615 76.5529V66.9176C829.615 65.6981 828.977 64.5584 827.894 63.997C821.005 60.4243 812.191 58.638 801.454 58.638C792.067 58.638 784.703 60.4992 779.363 64.2216C774.022 67.944 771.351 73.7703 771.351 81.7006C771.351 87.2033 773.051 91.8158 776.449 95.5382C779.848 99.2606 783.732 102.174 788.102 104.278C792.472 106.382 799.269 109.295 808.494 113.017C820.795 117.873 830.262 122.161 836.898 125.884C843.533 129.606 848.793 134.381 852.678 140.207C856.562 145.871 858.504 153.235 858.504 162.298C858.504 170.552 856.319 177.916 851.949 184.39C847.741 190.702 841.51 195.719 833.256 199.441C825.002 203.164 815.049 205.025 803.396 205.025Z" fill="white"/>
<path d="M597.279 187.596C597.279 185.691 598.823 184.147 600.727 184.147H603.833C607.07 184.147 609.255 183.581 610.388 182.448C611.683 181.153 612.33 178.968 612.33 175.893V65.6782C612.33 62.6031 611.764 60.4992 610.631 59.3663C609.498 58.0715 607.394 57.4242 604.319 57.4242H602.184C600.279 57.4242 598.735 55.8803 598.735 53.9758V44.1218C598.735 42.2173 600.279 40.6734 602.184 40.6734H647.481C649.386 40.6734 650.93 42.2173 650.93 44.1218V53.9758C650.93 55.8803 649.386 57.4242 647.481 57.4242H644.132C641.219 57.4242 639.196 58.0715 638.063 59.3663C636.93 60.4992 636.364 62.6031 636.364 65.6782V129.337C636.364 132.318 639.891 133.894 642.112 131.906L669.279 107.59C671.528 105.577 670.104 101.85 667.085 101.85C665.269 101.85 663.796 100.377 663.796 98.561V88.3049C663.796 86.4004 665.34 84.8566 667.245 84.8566H715.698C717.603 84.8566 719.147 86.4004 719.147 88.3049V98.4017C719.147 100.306 717.603 101.85 715.698 101.85H707.979C705.39 101.85 703.448 102.174 702.153 102.821C700.858 103.469 699.078 104.763 696.812 106.705L674.923 125.941C673.679 127.035 673.388 128.858 674.23 130.284L702.153 177.593C703.772 180.182 705.309 181.962 706.766 182.933C708.384 183.743 710.812 184.147 714.049 184.147H720.796C722.701 184.147 724.245 185.691 724.245 187.596V197.935C724.245 199.84 722.701 201.384 720.796 201.384H693.66C692.452 201.384 691.333 200.752 690.708 199.718L657.927 145.452C656.813 143.608 654.298 143.226 652.687 144.656L637.523 158.114C636.786 158.768 636.364 159.707 636.364 160.693V175.893C636.364 178.968 636.93 181.153 638.063 182.448C639.358 183.581 641.624 184.147 644.861 184.147H648.938C650.842 184.147 652.386 185.691 652.386 187.596V197.935C652.386 199.84 650.842 201.384 648.938 201.384H600.727C598.823 201.384 597.279 199.84 597.279 197.935V187.596Z" fill="white"/>
<path d="M532.172 205.025C513.307 205.025 497.521 200.67 484.814 191.959C483.902 191.334 483.376 190.291 483.376 189.186V175.458C483.376 173.553 484.92 172.009 486.824 172.009H503.719C505.623 172.009 507.167 173.553 507.167 175.458V179.743C507.167 180.967 507.811 182.111 508.899 182.672C515.195 185.922 522.71 187.546 531.443 187.546C538.726 187.546 544.148 186.413 547.709 184.147C551.431 181.882 553.292 178.159 553.292 172.98C553.292 169.582 552.321 166.83 550.379 164.726C548.599 162.46 546.09 160.599 542.853 159.143C539.616 157.524 533.224 154.773 523.675 150.889C514.126 147.004 506.762 143.687 501.583 140.935C496.566 138.022 492.439 134.381 489.202 130.011C486.127 125.641 484.59 120.138 484.59 113.503C484.59 102.821 488.717 94.81 496.971 89.4692C505.225 83.9665 516.473 81.2152 530.715 81.2152C539.778 81.2152 548.275 82.429 556.205 84.8567C563.511 86.9441 569.925 89.9245 575.445 93.7977C576.333 94.4211 576.84 95.4488 576.84 96.5342V109.569C576.84 111.473 575.296 113.017 573.392 113.017H556.983C555.079 113.017 553.535 111.473 553.535 109.569V105.969C553.535 104.768 552.916 103.641 551.856 103.075C546.386 100.155 539.986 98.6943 532.657 98.6943C525.374 98.6943 519.872 99.8272 516.149 102.093C512.589 104.359 510.808 108.162 510.808 113.503C510.808 118.358 512.75 122.162 516.635 124.913C520.519 127.502 526.507 130.254 534.599 133.167C536.865 133.814 539.374 134.704 542.125 135.837C550.541 139.074 557.257 142.068 562.274 144.82C567.292 147.571 571.419 151.212 574.655 155.744C577.892 160.276 579.511 166.021 579.511 172.98C579.511 183.338 575.546 191.268 567.615 196.771C559.847 202.274 548.032 205.025 532.172 205.025Z" fill="white"/>
<path d="M389.571 205.025C376.623 205.025 366.751 202.193 359.953 196.528C353.318 190.864 350 182.853 350 172.495C350 160.842 353.641 152.345 360.924 147.004C368.369 141.502 379.051 138.265 392.969 137.294L423.729 135.316C425.544 135.2 426.956 133.694 426.956 131.875V120.3C426.956 112.694 425.338 107.191 422.101 103.792C418.864 100.394 413.362 98.6943 405.593 98.6943C400.252 98.6943 395.802 99.1798 392.241 100.151C389.443 100.817 386.809 101.868 384.339 103.302C383.342 103.881 382.773 104.97 382.773 106.123V109.569C382.773 111.473 381.229 113.017 379.325 113.017H363.644C361.74 113.017 360.196 111.473 360.196 109.569V95.7599C360.196 94.5657 360.812 93.4517 361.841 92.8461C375.021 85.0922 389.767 81.2152 406.079 81.2152C437.152 81.2152 452.689 94.9719 452.689 122.485V175.651C452.689 178.887 453.256 181.234 454.389 182.691C455.684 184.147 457.707 184.876 460.458 184.876H462.35C464.255 184.876 465.799 186.42 465.799 188.324V197.935C465.799 199.84 464.255 201.384 462.35 201.384H440.69C439.054 201.384 437.644 200.234 437.313 198.632L436.232 193.393C435.638 190.514 431.867 189.597 429.758 191.645C425.776 195.511 421.362 198.515 416.517 200.655C409.72 203.569 400.738 205.025 389.571 205.025ZM395.397 187.546C405.108 187.546 412.795 185.442 418.46 181.234C424.124 177.026 426.956 170.634 426.956 162.056V154.123C426.956 152.115 425.249 150.532 423.248 150.684L394.911 152.831C386.981 153.316 381.478 155.016 378.403 157.929C375.328 160.68 373.791 165.131 373.791 171.281C373.791 176.622 375.49 180.668 378.889 183.419C382.288 186.17 387.79 187.546 395.397 187.546Z" fill="white"/>
<defs>
<clipPath id="clip0_276_916">
<rect width="234.264" height="242.997" fill="white"/>
</clipPath>
</defs>
</svg>
