<svg width="1358" height="243" viewBox="0 0 1358 243" fill="none" xmlns="http://www.w3.org/2000/svg">
<g clip-path="url(#clip0_275_777)">
<path d="M140.225 117.917C140.225 130.065 130.321 139.955 118.145 139.955C117.587 139.955 117.024 139.934 116.462 139.892C105.695 139.094 96.9586 130.39 96.1381 119.639C95.6595 113.434 97.7266 107.507 101.955 102.956C106.126 98.4621 112.028 95.8845 118.145 95.8845C130.321 95.8845 140.225 105.764 140.225 117.917Z" fill="white"/>
<path d="M200.453 211.445V229.64C200.453 236.874 194.557 242.765 187.304 242.765H126.18C122.667 242.765 119.364 241.394 116.881 238.917L70.6064 192.735C66.7352 188.866 61.5807 186.74 56.1001 186.74H13.1493C5.89614 186.74 0 180.85 0 173.616V117.918C0 86.4196 12.2867 56.8064 34.6036 34.5322C56.9206 12.2632 86.5906 0 118.144 0C143.048 0 166.801 7.59099 186.846 21.954C189.954 24.1799 191.916 27.6499 192.227 31.4769C192.542 35.3354 191.148 39.1151 188.408 41.8502L153.773 76.4191C151.301 78.8864 148.008 80.2461 144.495 80.2461C142.37 80.2461 140.245 79.7263 138.346 78.7499C132.171 75.5686 125.181 73.8887 118.144 73.8887C106.357 73.8887 95.2797 78.4664 86.9483 86.7819C77.9857 95.7325 73.4151 107.644 74.0883 120.322C74.6195 130.301 78.6011 139.893 85.302 147.326C93.8122 156.76 105.473 161.957 118.144 161.957C125.181 161.957 132.166 160.272 138.346 157.09C140.245 156.114 142.37 155.594 144.49 155.594C148.008 155.594 151.301 156.954 153.773 159.416L196.603 202.164C199.085 204.642 200.453 207.938 200.453 211.445Z" fill="white"/>
<path d="M83.8503 240.486C83.6294 241.021 82.73 242.759 80.4473 242.759H8.94151C4.01316 242.759 0 238.754 0 233.835V217.655C0 212.731 4.01316 208.731 8.94151 208.731H51.5399C53.9278 208.731 56.1737 209.655 57.8621 211.34L83.0509 236.486C84.6656 238.092 84.0712 239.956 83.8503 240.486Z" fill="white"/>
<path d="M232.407 103.848C230.708 105.88 228.21 107.051 225.554 107.051H163.679C162.074 107.051 160.665 106.011 160.165 104.463L160.018 104.011C159.56 102.625 159.886 101.15 160.88 100.163L205.53 55.5936C207.224 53.9032 209.464 52.974 211.852 52.974C215.019 52.974 217.88 54.5804 219.505 57.2734C226.8 69.3791 231.797 82.561 234.343 96.462C234.827 99.1026 234.122 101.796 232.407 103.848Z" fill="white"/>
<path d="M234.166 140.307C231.563 153.872 226.624 166.755 219.481 178.593C217.866 181.275 215.01 182.882 211.849 182.882C209.461 182.882 207.216 181.947 205.522 180.257L160.867 135.687C159.873 134.7 159.542 133.23 159.999 131.86C159.999 131.855 160.031 131.766 160.036 131.761C160.446 130.511 161.645 129.676 163.013 129.676H225.388C228.06 129.676 230.569 130.852 232.273 132.91C233.982 134.973 234.671 137.672 234.166 140.307Z" fill="white"/>
</g>
<path d="M1317.93 205.025C1304.5 205.025 1294.39 201.707 1287.59 195.072C1280.79 188.436 1277.39 178.726 1277.39 165.94V105.784C1277.39 103.88 1275.85 102.336 1273.94 102.336H1261.91C1260 102.336 1258.46 100.792 1258.46 98.8874V88.305C1258.46 86.4006 1260 84.8567 1261.91 84.8567H1273.94C1275.85 84.8567 1277.39 83.3128 1277.39 81.4083V61.1534C1277.39 59.6547 1278.36 58.3276 1279.79 57.8698L1298.62 51.828C1300.85 51.1141 1303.13 52.7743 1303.13 55.1116V81.4083C1303.13 83.3128 1304.67 84.8567 1306.57 84.8567H1334.64C1336.54 84.8567 1338.08 86.4006 1338.08 88.305V98.8874C1338.08 100.792 1336.54 102.336 1334.64 102.336H1306.57C1304.67 102.336 1303.13 103.88 1303.13 105.784V167.639C1303.13 174.76 1304.42 179.859 1307.01 182.934C1309.76 186.009 1313.89 187.546 1319.39 187.546C1325.72 187.546 1330.71 186.331 1334.35 183.901C1335.21 183.331 1335.66 182.338 1335.66 181.309V175.943C1335.66 174.039 1337.2 172.495 1339.11 172.495H1354.3C1356.2 172.495 1357.75 174.039 1357.75 175.943V189.348C1357.75 190.361 1357.31 191.327 1356.52 191.963C1351.52 196.001 1346.1 199.141 1340.27 201.384C1333.96 203.811 1326.51 205.025 1317.93 205.025Z" fill="white"/>
<path d="M1170.7 205.025C1157.43 205.025 1147.39 201.546 1140.59 194.586C1133.8 187.627 1130.4 177.674 1130.4 164.726V111.804C1130.4 108.729 1129.67 106.463 1128.21 105.006C1126.92 103.55 1124.73 102.821 1121.66 102.821H1118.07C1116.16 102.821 1114.62 101.278 1114.62 99.373V88.3052C1114.62 86.4007 1116.16 84.8568 1118.07 84.8568H1152.93C1154.83 84.8568 1156.37 86.4007 1156.37 88.3052V164.484C1156.37 180.182 1163.98 188.032 1179.19 188.032C1187.45 188.032 1194.08 185.604 1199.1 180.749C1204.12 175.894 1206.63 168.934 1206.63 159.871V111.804C1206.63 108.729 1205.98 106.463 1204.68 105.006C1203.55 103.55 1201.53 102.821 1198.62 102.821H1195.27C1193.36 102.821 1191.82 101.278 1191.82 99.373V88.3052C1191.82 86.4007 1193.36 84.8568 1195.27 84.8568H1228.91C1230.82 84.8568 1232.36 86.4007 1232.36 88.3052V174.437C1232.36 177.512 1233.09 179.778 1234.54 181.234C1236 182.529 1238.27 183.176 1241.34 183.176H1242.75C1244.65 183.176 1246.2 184.72 1246.2 186.625V197.935C1246.2 199.84 1244.65 201.384 1242.75 201.384H1218.51C1216.73 201.384 1215.24 200.027 1215.08 198.252L1214.72 194.416C1214.43 191.287 1210.3 190.034 1208.01 192.186C1204.27 195.696 1200.17 198.438 1195.7 200.413C1188.9 203.488 1180.57 205.025 1170.7 205.025Z" fill="white"/>
<path d="M1042.65 205.025C1022.91 205.025 1008.02 199.603 997.982 188.76C987.947 177.916 982.93 162.784 982.93 143.363C982.93 123.78 987.866 108.567 997.739 97.7232C1007.77 86.7179 1022.74 81.2152 1042.65 81.2152C1062.56 81.2152 1077.45 86.7179 1087.32 97.7232C1097.35 108.567 1102.37 123.78 1102.37 143.363C1102.37 162.784 1097.35 177.916 1087.32 188.76C1077.28 199.603 1062.4 205.025 1042.65 205.025ZM1042.65 186.818C1054.3 186.818 1062.96 183.257 1068.63 176.136C1074.29 169.015 1077.12 158.091 1077.12 143.363C1077.12 128.473 1074.29 117.468 1068.63 110.347C1062.96 103.064 1054.3 99.4225 1042.65 99.4225C1031 99.4225 1022.34 103.064 1016.67 110.347C1011.17 117.468 1008.42 128.473 1008.42 143.363C1008.42 158.091 1011.17 169.015 1016.67 176.136C1022.34 183.257 1031 186.818 1042.65 186.818Z" fill="white"/>
<path d="M919.174 205.025C907.521 205.025 896.921 202.678 887.372 197.985C877.985 193.292 870.54 186.332 865.038 177.107C859.535 167.882 856.784 156.877 856.784 144.091C856.784 123.699 862.205 108.162 873.049 97.4804C884.054 86.637 899.187 81.2152 918.446 81.2152C928.966 81.2152 937.786 82.3481 944.907 84.6139C951.536 86.7231 957.955 90.0243 964.163 94.5176C965.038 95.1512 965.542 96.1734 965.542 97.2541V115.395C965.542 117.3 963.998 118.844 962.094 118.844H946.413C944.509 118.844 942.965 117.3 942.965 115.395V107.504C942.965 106.26 942.3 105.105 941.196 104.534C938.111 102.939 935.14 101.802 932.283 101.122C928.885 100.313 924.272 99.9081 918.446 99.9081C907.602 99.9081 898.782 103.55 891.985 110.832C885.349 117.954 882.031 129.04 882.031 144.091C882.031 158.333 885.834 168.934 893.441 175.893C901.21 182.691 911.082 186.09 923.058 186.09C930.503 186.09 936.815 185.442 941.994 184.147C946.194 183.129 950.193 181.561 953.992 179.442C955.696 178.492 957.885 178.977 958.897 180.645L964.342 189.622C965.289 191.183 964.859 193.219 963.315 194.192C957.382 197.928 951.327 200.568 945.15 202.112C938.191 204.054 929.532 205.025 919.174 205.025Z" fill="white"/>
<path d="M784.644 205.025C773.315 205.025 762.552 203.407 752.356 200.17C742.797 197.135 734.518 193.105 727.52 188.078C726.642 187.448 726.138 186.425 726.138 185.344V166.718C726.138 164.813 727.682 163.27 729.586 163.27H748.665C750.57 163.27 752.114 164.813 752.114 166.718V177.097C752.114 178.308 752.744 179.44 753.812 180.012C757.517 181.996 761.887 183.617 766.922 184.876C772.91 186.332 778.979 187.06 785.129 187.06C794.84 187.06 802.204 185.037 807.221 180.991C812.238 176.783 814.747 170.876 814.747 163.27C814.747 157.929 813.371 153.478 810.62 149.917C808.03 146.357 804.308 143.282 799.453 140.692C794.597 138.103 787.881 135.109 779.303 131.71C767.327 127.017 757.697 122.566 750.414 118.358C743.131 114.15 737.467 109.214 733.421 103.549C729.536 97.7231 727.594 90.6829 727.594 82.4289C727.594 68.6722 732.854 58.3143 743.374 51.355C753.894 44.2339 767.408 40.6734 783.916 40.6734C794.759 40.6734 804.632 42.2109 813.533 45.2859C821.975 48.1502 829.294 51.857 835.489 56.4064C836.349 57.0375 836.838 58.0482 836.838 59.1144V76.5529C836.838 78.4574 835.294 80.0013 833.39 80.0013H814.311C812.406 80.0013 810.863 78.4574 810.863 76.5529V66.9176C810.863 65.6981 810.225 64.5584 809.142 63.997C802.252 60.4243 793.439 58.638 782.702 58.638C773.315 58.638 765.951 60.4992 760.61 64.2216C755.269 67.944 752.599 73.7703 752.599 81.7006C752.599 87.2033 754.298 91.8158 757.697 95.5382C761.096 99.2606 764.98 102.174 769.35 104.278C773.72 106.382 780.517 109.295 789.742 113.017C802.042 117.873 811.51 122.161 818.145 125.884C824.781 129.606 830.041 134.381 833.925 140.207C837.809 145.871 839.751 153.235 839.751 162.298C839.751 170.552 837.567 177.916 833.197 184.39C828.989 190.702 822.758 195.719 814.504 199.441C806.25 203.164 796.297 205.025 784.644 205.025Z" fill="white"/>
<path d="M578.526 187.596C578.526 185.691 580.07 184.147 581.975 184.147H585.081C588.318 184.147 590.503 183.581 591.636 182.448C592.93 181.153 593.578 178.968 593.578 175.893V65.6782C593.578 62.6031 593.011 60.4992 591.878 59.3663C590.746 58.0715 588.642 57.4242 585.567 57.4242H583.431C581.527 57.4242 579.983 55.8803 579.983 53.9758V44.1218C579.983 42.2173 581.527 40.6734 583.431 40.6734H628.729C630.633 40.6734 632.177 42.2173 632.177 44.1218V53.9758C632.177 55.8803 630.633 57.4242 628.729 57.4242H625.38C622.467 57.4242 620.444 58.0715 619.311 59.3663C618.178 60.4992 617.611 62.6031 617.611 65.6782V129.337C617.611 132.318 621.138 133.894 623.36 131.906L650.527 107.59C652.776 105.577 651.352 101.85 648.333 101.85C646.516 101.85 645.044 100.377 645.044 98.561V88.3049C645.044 86.4004 646.588 84.8566 648.492 84.8566H696.946C698.85 84.8566 700.394 86.4004 700.394 88.3049V98.4017C700.394 100.306 698.85 101.85 696.946 101.85H689.227C686.638 101.85 684.695 102.174 683.401 102.821C682.106 103.469 680.326 104.763 678.06 106.705L656.171 125.941C654.927 127.035 654.635 128.858 655.477 130.284L683.401 177.593C685.019 180.182 686.557 181.962 688.013 182.933C689.632 183.743 692.059 184.147 695.296 184.147H702.044C703.948 184.147 705.492 185.691 705.492 187.596V197.935C705.492 199.84 703.948 201.384 702.044 201.384H674.907C673.7 201.384 672.58 200.752 671.956 199.718L639.175 145.452C638.06 143.608 635.546 143.226 633.934 144.656L618.771 158.114C618.033 158.768 617.611 159.707 617.611 160.693V175.893C617.611 178.968 618.178 181.153 619.311 182.448C620.606 183.581 622.871 184.147 626.108 184.147H630.186C632.09 184.147 633.634 185.691 633.634 187.596V197.935C633.634 199.84 632.09 201.384 630.186 201.384H581.975C580.07 201.384 578.526 199.84 578.526 197.935V187.596Z" fill="white"/>
<path d="M513.419 205.025C494.554 205.025 478.768 200.67 466.061 191.959C465.15 191.334 464.624 190.291 464.624 189.186V175.458C464.624 173.553 466.167 172.009 468.072 172.009H484.966C486.871 172.009 488.414 173.553 488.414 175.458V179.743C488.414 180.967 489.058 182.111 490.146 182.672C496.443 185.922 503.958 187.546 512.691 187.546C519.974 187.546 525.396 186.413 528.956 184.147C532.679 181.882 534.54 178.159 534.54 172.98C534.54 169.582 533.569 166.83 531.627 164.726C529.846 162.46 527.338 160.599 524.101 159.143C520.864 157.524 514.471 154.773 504.922 150.889C495.374 147.004 488.01 143.687 482.831 140.935C477.814 138.022 473.687 134.381 470.45 130.011C467.375 125.641 465.837 120.138 465.837 113.503C465.837 102.821 469.964 94.81 478.218 89.4692C486.472 83.9665 497.72 81.2152 511.963 81.2152C521.026 81.2152 529.523 82.429 537.453 84.8567C544.759 86.9441 551.172 89.9245 556.693 93.7977C557.581 94.4211 558.088 95.4488 558.088 96.5342V109.569C558.088 111.473 556.544 113.017 554.64 113.017H538.231C536.326 113.017 534.782 111.473 534.782 109.569V105.969C534.782 104.768 534.164 103.641 533.104 103.075C527.633 100.155 521.234 98.6943 513.905 98.6943C506.622 98.6943 501.119 99.8272 497.397 102.093C493.836 104.359 492.056 108.162 492.056 113.503C492.056 118.358 493.998 122.162 497.882 124.913C501.767 127.502 507.755 130.254 515.847 133.167C518.113 133.814 520.621 134.704 523.373 135.837C531.788 139.074 538.505 142.068 543.522 144.82C548.539 147.571 552.666 151.212 555.903 155.744C559.14 160.276 560.758 166.021 560.758 172.98C560.758 183.338 556.793 191.268 548.863 196.771C541.094 202.274 529.28 205.025 513.419 205.025Z" fill="white"/>
<path d="M370.818 205.025C357.871 205.025 347.998 202.193 341.201 196.528C334.565 190.864 331.248 182.853 331.248 172.495C331.248 160.842 334.889 152.345 342.172 147.004C349.617 141.502 360.298 138.265 374.217 137.294L404.977 135.316C406.792 135.2 408.204 133.694 408.204 131.875V120.3C408.204 112.694 406.585 107.191 403.349 103.792C400.112 100.394 394.609 98.6943 386.841 98.6943C381.5 98.6943 377.049 99.1798 373.489 100.151C370.69 100.817 368.056 101.868 365.587 103.302C364.59 103.881 364.021 104.97 364.021 106.123V109.569C364.021 111.473 362.477 113.017 360.572 113.017H344.892C342.988 113.017 341.444 111.473 341.444 109.569V95.7599C341.444 94.5657 342.059 93.4517 343.089 92.8461C356.269 85.0922 371.015 81.2152 387.326 81.2152C418.4 81.2152 433.937 94.9719 433.937 122.485V175.651C433.937 178.887 434.503 181.234 435.636 182.691C436.931 184.147 438.954 184.876 441.705 184.876H443.598C445.502 184.876 447.046 186.42 447.046 188.324V197.935C447.046 199.84 445.502 201.384 443.598 201.384H421.938C420.302 201.384 418.891 200.234 418.561 198.632L417.48 193.393C416.885 190.514 413.114 189.597 411.005 191.645C407.023 195.511 402.61 198.515 397.765 200.655C390.968 203.569 381.985 205.025 370.818 205.025ZM376.645 187.546C386.355 187.546 394.043 185.442 399.707 181.234C405.372 177.026 408.204 170.634 408.204 162.056V154.123C408.204 152.115 406.496 150.532 404.495 150.684L376.159 152.831C368.229 153.316 362.726 155.016 359.651 157.929C356.576 160.68 355.038 165.131 355.038 171.281C355.038 176.622 356.738 180.668 360.137 183.419C363.535 186.17 369.038 187.546 376.645 187.546Z" fill="white"/>
<defs>
<clipPath id="clip0_275_777">
<rect width="234.264" height="242.997" fill="white"/>
</clipPath>
</defs>
</svg>
