<svg width="1355" height="243" viewBox="0 0 1355 243" fill="none" xmlns="http://www.w3.org/2000/svg">
<g clip-path="url(#clip0_287_3223)">
<path d="M80.3381 171.558C95.0229 176.072 108.732 176.626 113.945 176.648H114.337C123.809 176.655 171.93 174.904 189.839 140.402C197.336 125.944 196.235 111.929 195.761 105.944C193.063 71.2353 165.985 51.6644 160.58 48.096C147.426 39.4077 132.134 35.0044 115.135 35.0044H113.945C97.0268 35.1226 81.7356 39.5259 68.4926 48.1034C60.5068 53.2824 34.2722 72.7425 32.0983 105.93C31.248 118.755 33.5698 130.347 39.0045 140.38C46.9607 155.075 60.8692 165.566 80.3381 171.558ZM80.7004 62.6283C81.2549 62.68 82.3567 62.7686 83.1331 63.5001C83.9538 64.2684 84.3975 65.7239 84.3975 65.7239C84.4345 65.8938 84.4566 66.0637 84.4566 66.2336C84.4566 67.2236 83.8207 68.1619 83.0591 68.9524C81.9574 70.0828 80.8852 70.7551 80.619 70.8955C78.0237 72.2179 68.1894 81.2978 63.1688 93.1926C61.823 96.3768 57.564 106.469 59.4495 119.265C60.4181 125.862 63.1835 134.263 59.9523 135.748C59.2498 136.073 58.5104 135.955 58.1407 135.895C51.8852 134.891 49.2381 120.366 48.9867 118.903C48.8462 118.112 48.7427 117.366 48.6613 116.65C48.6613 116.65 48.3582 114.034 48.4025 111.197C48.6022 97.6919 52.3437 88.2057 52.3437 88.2057C56.965 76.4956 64.3075 70.0089 66.4148 68.2432C66.4148 68.2432 73.8016 62.052 80.7004 62.6283Z" fill="white"/>
<path d="M223.571 103.75C222.114 101.29 220.547 99.4504 219.024 97.6699C216.295 94.4635 213.715 91.4344 212.332 85.6126C211.873 83.6695 211.822 82.5761 211.755 80.936C211.703 79.7908 211.644 78.3649 211.422 76.1116C210.432 65.9678 208.08 58.1956 207.385 56.0531C203.814 45.0597 197.514 37.7677 193.321 32.9137C179.524 16.9703 163.538 10.4467 157.519 7.99386C142.486 1.8544 129.28 0.812684 123.639 0.369402C120.134 0.0960445 114.366 0 114.337 0H113.693C113.634 0 107.867 0.0960445 104.369 0.369402C98.7275 0.812684 85.514 1.8544 70.4816 7.99386C64.4628 10.4467 48.4765 16.9703 34.6642 32.9359C30.4938 37.7677 24.1866 45.0597 20.6152 56.0531C19.9201 58.1956 17.5762 65.9678 16.578 76.1116C16.3561 78.3649 16.297 79.7908 16.2452 80.936C16.1787 82.5761 16.1343 83.6695 15.6685 85.6126C14.2932 91.4344 11.7126 94.4635 8.97674 97.6699C7.46093 99.4504 5.88596 101.29 4.42931 103.75C-1.95188 114.544 -0.450862 127.473 2.77301 135.275C3.62334 137.336 6.20391 143.609 11.7496 145.589C12.2893 145.781 13.5611 146.239 14.7664 146.239C15.4319 146.239 15.9495 146.098 16.297 145.825C17.3618 144.983 17.0882 142.404 16.7037 138.836C16.6223 138.046 16.5336 137.211 16.4523 136.317C15.9864 131.411 15.8681 126.335 16.09 121.238C16.09 120.61 16.0456 115.054 17.6871 103.499C23.5063 62.355 54.1035 38.6838 54.4362 38.4326C64.5885 31.0667 75.4949 25.7843 85.9799 23.1689C93.4037 21.3145 101.36 20.5905 104.436 20.3614C107.896 20.1176 113.427 20.0807 113.649 20.0807L115.246 20.0659C118.019 20.0659 120.821 20.1693 123.572 20.3614C126.648 20.5905 134.597 21.3145 142.02 23.1689C152.505 25.7843 163.412 31.0667 173.586 38.4547C173.897 38.6838 204.494 62.355 210.321 103.499C211.955 115.054 211.925 120.61 211.918 121.238C212.14 126.335 212.014 131.411 211.555 136.317C211.467 137.211 211.378 138.046 211.297 138.836C210.912 142.404 210.639 144.983 211.703 145.818C212.058 146.098 212.576 146.239 213.234 146.239C214.439 146.239 215.711 145.781 216.258 145.581C221.796 143.609 224.384 137.336 225.235 135.268C228.451 127.473 229.952 114.544 223.571 103.75Z" fill="white"/>
<path d="M196.553 155.762C195.843 155.762 193.676 158.149 191.946 160.069C188.182 164.244 182.489 170.538 173.217 176.375C166.155 180.83 159.619 183.334 156.824 184.406C152.934 185.905 144.83 188.661 134.301 190.272C128.622 191.136 122.825 191.572 117.058 191.572C116.082 191.572 115.091 191.565 114.085 191.535H113.923C112.91 191.565 111.919 191.572 110.95 191.572C105.183 191.572 99.3782 191.136 93.7069 190.272C83.1701 188.661 75.0735 185.905 71.1842 184.406C68.3891 183.342 61.8453 180.83 54.7912 176.375C45.5189 170.538 39.8254 164.244 36.0617 160.069C34.3315 158.149 32.165 155.762 31.4699 155.755C30.1464 156.368 30.5235 165.522 34.1244 175.141C36.4906 181.458 40.6461 187.752 45.8221 192.872C51.0867 198.066 58.5105 202.565 67.8863 206.237C80.3382 211.106 93.9065 213.574 108.214 213.574C110.107 213.574 112.03 213.529 113.937 213.448C113.96 213.448 114.048 213.448 114.07 213.448C115.978 213.529 117.901 213.574 119.794 213.574C134.101 213.574 147.67 211.106 160.122 206.237C169.497 202.565 176.921 198.066 182.186 192.872C187.362 187.76 191.517 181.458 193.883 175.141C197.477 165.522 197.862 156.368 196.553 155.762Z" fill="white"/>
<path d="M118.137 230.101H118.034C117.102 230.123 116.155 230.13 115.187 230.13C114.344 230.13 113.493 230.13 112.658 230.108H112.473C111.586 230.13 110.721 230.13 109.87 230.13C104.739 230.13 99.6294 229.857 94.6826 229.31C87.7987 228.549 80.9442 227.271 74.8588 225.601C72.1673 224.848 66.5625 223.296 60.4179 220.511C52.2252 216.802 47.1971 212.798 43.8697 210.146C42.1173 208.749 40.461 207.434 39.6994 207.434H39.692C39.6181 207.456 39.5441 207.634 39.522 207.685C38.7899 209.473 40.0469 214.674 42.1986 218.812C44.2542 222.75 47.87 226.68 52.3657 229.872C56.987 233.152 63.5309 236.004 71.805 238.331C82.8002 241.434 94.8083 243 107.489 243C109.146 243 110.832 242.978 112.495 242.919H112.591C114.24 242.971 115.904 243 117.538 243C118.943 243 120.363 242.978 121.76 242.941C122.662 242.919 123.328 242.372 123.72 241.921C124.614 240.895 125.043 239.358 124.873 237.806C124.393 233.41 121.501 230.101 118.137 230.101Z" fill="white"/>
<path d="M187.687 207.449C187.635 207.434 187.576 207.427 187.517 207.427C186.644 207.427 184.855 208.705 182.785 210.19C179.088 212.835 173.512 216.832 164.417 220.533C157.607 223.311 151.382 224.863 148.372 225.616C146.938 225.971 145.984 227.618 146.191 229.362L146.768 234.075C147.071 236.573 148.89 238.449 150.997 238.449C151.293 238.449 151.596 238.412 151.943 238.324C161.157 235.989 168.462 233.137 173.653 229.827C180.078 225.734 183.361 221.545 184.981 218.76C187.31 214.741 188.715 209.614 187.99 207.796C187.872 207.501 187.754 207.471 187.687 207.449Z" fill="white"/>
</g>
<path d="M1314.69 198.676C1301.25 198.676 1291.14 195.358 1284.34 188.723C1277.54 182.087 1274.15 172.377 1274.15 159.591V100.987C1274.15 98.2253 1271.91 95.9868 1269.15 95.9868H1260.21C1257.45 95.9868 1255.21 93.7482 1255.21 90.9868V83.5077C1255.21 80.7463 1257.45 78.5077 1260.21 78.5077H1269.15C1271.91 78.5077 1274.15 76.2692 1274.15 73.5077V55.9363C1274.15 53.7632 1275.55 51.8389 1277.62 51.1752L1293.35 46.1288C1296.58 45.0937 1299.88 47.5009 1299.88 50.8898V73.5077C1299.88 76.2692 1302.12 78.5077 1304.88 78.5077H1329.84C1332.6 78.5077 1334.84 80.7463 1334.84 83.5077V90.9868C1334.84 93.7482 1332.6 95.9868 1329.84 95.9868H1304.88C1302.12 95.9868 1299.88 98.2254 1299.88 100.987V161.29C1299.88 168.412 1301.17 173.51 1303.76 176.585C1306.51 179.66 1310.64 181.197 1316.14 181.197C1322.12 181.197 1326.91 180.113 1330.49 177.944C1331.76 177.172 1332.41 175.721 1332.41 174.23V171.146C1332.41 168.384 1334.65 166.146 1337.41 166.146H1349.5C1352.26 166.146 1354.5 168.384 1354.5 171.146V182.281C1354.5 183.749 1353.86 185.153 1352.71 186.062C1347.86 189.885 1342.63 192.876 1337.02 195.035C1330.71 197.462 1323.27 198.676 1314.69 198.676Z" fill="white"/>
<path d="M1167.45 198.676C1154.18 198.676 1144.14 195.197 1137.35 188.237C1130.55 181.278 1127.15 171.325 1127.15 158.377V105.455C1127.15 102.38 1126.42 100.114 1124.97 98.6573C1123.67 97.2007 1121.49 96.4724 1118.41 96.4724H1116.37C1113.61 96.4724 1111.37 94.2338 1111.37 91.4724V83.5078C1111.37 80.7464 1113.61 78.5078 1116.37 78.5078H1148.13C1150.89 78.5078 1153.13 80.7464 1153.13 83.5078V158.135C1153.13 173.833 1160.73 181.683 1175.95 181.683C1184.2 181.683 1190.84 179.255 1195.85 174.4C1200.87 169.545 1203.38 162.585 1203.38 153.522V105.455C1203.38 102.38 1202.73 100.114 1201.44 98.6573C1200.3 97.2007 1198.28 96.4724 1195.37 96.4724H1193.57C1190.81 96.4724 1188.57 94.2338 1188.57 91.4724V83.5078C1188.57 80.7464 1190.81 78.5078 1193.57 78.5078H1224.11C1226.87 78.5078 1229.11 80.7464 1229.11 83.5078V168.088C1229.11 171.163 1229.84 173.429 1231.3 174.885C1232.75 176.18 1235.02 176.827 1238.09 176.827C1240.78 176.827 1242.95 179.001 1242.95 181.683V190.035C1242.95 192.796 1240.71 195.035 1237.95 195.035H1216.27C1213.92 195.035 1211.95 193.242 1211.74 190.898C1211.35 186.763 1205.82 185.064 1202.63 187.721C1199.48 190.343 1196.09 192.457 1192.45 194.064C1185.66 197.139 1177.32 198.676 1167.45 198.676Z" fill="white"/>
<path d="M1039.4 198.676C1019.66 198.676 1004.77 193.254 994.734 182.411C984.7 171.567 979.683 156.435 979.683 137.014C979.683 117.431 984.619 102.218 994.491 91.3742C1004.53 80.3689 1019.5 74.8662 1039.4 74.8662C1059.31 74.8662 1074.2 80.3689 1084.07 91.3742C1094.11 102.218 1099.12 117.431 1099.12 137.014C1099.12 156.435 1094.11 171.567 1084.07 182.411C1074.04 193.254 1059.15 198.676 1039.4 198.676ZM1039.4 180.469C1051.06 180.469 1059.71 176.908 1065.38 169.787C1071.04 162.666 1073.88 151.742 1073.88 137.014C1073.88 122.124 1071.04 111.119 1065.38 103.998C1059.71 96.715 1051.06 93.0735 1039.4 93.0735C1027.75 93.0735 1019.09 96.715 1013.43 103.998C1007.92 111.119 1005.17 122.124 1005.17 137.014C1005.17 151.742 1007.92 162.666 1013.43 169.787C1019.09 176.908 1027.75 180.469 1039.4 180.469Z" fill="white"/>
<path d="M915.927 198.676C904.274 198.676 893.673 196.329 884.124 191.636C874.738 186.943 867.293 179.983 861.79 170.758C856.287 161.533 853.536 150.528 853.536 137.742C853.536 117.35 858.958 101.813 869.801 91.1314C880.807 80.288 895.939 74.8662 915.198 74.8662C925.718 74.8662 934.539 75.9991 941.66 78.2649C948.065 80.3031 954.275 83.4545 960.288 87.719C961.566 88.6254 962.295 90.1102 962.295 91.6772V107.495C962.295 110.256 960.056 112.495 957.295 112.495H944.718C941.956 112.495 939.718 110.256 939.718 107.495V102.06C939.718 100.257 938.756 98.575 937.14 97.7764C934.343 96.3946 931.642 95.3934 929.036 94.7729C925.637 93.9637 921.025 93.5591 915.198 93.5591C904.355 93.5591 895.534 97.2005 888.737 104.483C882.101 111.605 878.784 122.691 878.784 137.742C878.784 151.984 882.587 162.585 890.194 169.544C897.962 176.342 907.834 179.741 919.811 179.741C927.256 179.741 933.568 179.093 938.746 177.798C942.428 176.906 945.955 175.591 949.329 173.852C951.844 172.556 955.015 173.251 956.483 175.67L960.336 182.023C961.709 184.286 961.089 187.245 958.822 188.61C953.287 191.942 947.648 194.327 941.902 195.763C934.943 197.705 926.285 198.676 915.927 198.676Z" fill="white"/>
<path d="M781.396 198.676C770.067 198.676 759.305 197.057 749.109 193.821C739.835 190.876 731.766 186.995 724.902 182.176C723.619 181.276 722.89 179.79 722.89 178.222V161.92C722.89 159.159 725.129 156.92 727.89 156.92H743.866C746.627 156.92 748.866 159.159 748.866 161.92V169.869C748.866 171.625 749.778 173.272 751.343 174.069C754.877 175.869 758.988 177.355 763.675 178.526C769.663 179.983 775.732 180.711 781.882 180.711C791.592 180.711 798.956 178.688 803.973 174.642C808.991 170.434 811.499 164.527 811.499 156.92C811.499 151.579 810.124 147.129 807.372 143.568C804.783 140.008 801.06 136.933 796.205 134.343C791.35 131.754 784.633 128.76 776.056 125.361C764.079 120.667 754.449 116.217 747.167 112.009C739.884 107.801 734.219 102.865 730.173 97.2002C726.289 91.3739 724.347 84.3337 724.347 76.0797C724.347 62.3231 729.607 51.9651 740.126 45.0059C750.646 37.8848 764.16 34.3242 780.668 34.3242C791.512 34.3242 801.384 35.8617 810.285 38.9368C818.45 41.7067 825.563 45.2647 831.626 49.6106C832.883 50.5113 833.591 51.9798 833.591 53.5258V68.6521C833.591 71.4135 831.352 73.6521 828.591 73.6521H812.615C809.854 73.6521 807.615 71.4135 807.615 68.6521V61.4538C807.615 59.6856 806.692 58.0259 805.104 57.2497C798.335 53.9424 789.785 52.2888 779.454 52.2888C770.067 52.2888 762.703 54.15 757.363 57.8724C752.022 61.5948 749.351 67.4211 749.351 75.3514C749.351 80.8541 751.051 85.4666 754.449 89.189C757.848 92.9114 761.732 95.8246 766.102 97.9285C770.472 100.032 777.269 102.946 786.494 106.668C798.795 111.523 808.262 115.812 814.898 119.535C821.533 123.257 826.793 128.031 830.678 133.858C834.562 139.522 836.504 146.886 836.504 155.949C836.504 164.203 834.319 171.567 829.949 178.041C825.741 184.353 819.51 189.37 811.256 193.092C803.002 196.815 793.049 198.676 781.396 198.676Z" fill="white"/>
<path d="M575.279 182.798C575.279 180.037 577.517 177.798 580.279 177.798H581.833C585.07 177.798 587.255 177.232 588.388 176.099C589.683 174.804 590.33 172.619 590.33 169.544V59.329C590.33 56.254 589.764 54.15 588.631 53.0171C587.498 51.7223 585.394 51.075 582.319 51.075H581.735C578.974 51.075 576.735 48.8364 576.735 46.075V39.3242C576.735 36.5628 578.974 34.3242 581.735 34.3242H623.93C626.691 34.3242 628.93 36.5628 628.93 39.3242V46.075C628.93 48.8364 626.691 51.075 623.93 51.075H622.132C619.219 51.075 617.196 51.7223 616.063 53.0171C614.93 54.15 614.364 56.254 614.364 59.329V119.516C614.364 123.839 619.478 126.124 622.699 123.242L647.279 101.241C649.528 99.2274 648.104 95.5009 645.085 95.5009C643.269 95.5009 641.796 94.0283 641.796 92.2118V83.5074C641.796 80.7459 644.035 78.5074 646.796 78.5074H692.147C694.908 78.5074 697.147 80.7459 697.147 83.5074V90.5009C697.147 93.2623 694.908 95.5009 692.147 95.5009H685.979C683.39 95.5009 681.448 95.8246 680.153 96.472C678.858 97.1193 677.078 98.4141 674.812 100.356L653.888 118.744C652.084 120.329 651.662 122.973 652.883 125.042L680.153 171.243C681.772 173.833 683.309 175.613 684.766 176.584C686.384 177.393 688.812 177.798 692.049 177.798H697.245C700.006 177.798 702.245 180.037 702.245 182.798V190.034C702.245 192.796 700.006 195.034 697.245 195.034H672.535C670.784 195.034 669.161 194.118 668.256 192.62L636.891 140.699C635.275 138.024 631.629 137.47 629.292 139.544L616.045 151.301C614.976 152.25 614.364 153.611 614.364 155.041V169.544C614.364 172.619 614.93 174.804 616.063 176.099C617.358 177.232 619.624 177.798 622.861 177.798H625.386C628.148 177.798 630.386 180.037 630.386 182.798V190.034C630.386 192.796 628.148 195.034 625.386 195.034H580.279C577.517 195.034 575.279 192.796 575.279 190.034V182.798Z" fill="white"/>
<path d="M510.172 198.676C491.63 198.676 476.062 194.469 463.469 186.053C462.137 185.163 461.376 183.647 461.376 182.045V170.66C461.376 167.899 463.615 165.66 466.376 165.66H480.167C482.928 165.66 485.167 167.899 485.167 170.66V172.504C485.167 174.28 486.098 175.945 487.694 176.722C493.825 179.705 501.075 181.197 509.443 181.197C516.726 181.197 522.148 180.064 525.709 177.798C529.431 175.533 531.292 171.81 531.292 166.631C531.292 163.233 530.321 160.481 528.379 158.377C526.599 156.111 524.09 154.25 520.853 152.794C517.616 151.175 511.224 148.424 501.675 144.54C492.126 140.655 484.762 137.338 479.583 134.586C474.566 131.673 470.439 128.032 467.202 123.662C464.127 119.292 462.59 113.789 462.59 107.154C462.59 96.4723 466.717 88.461 474.971 83.1202C483.225 77.6175 494.473 74.8662 508.715 74.8662C517.778 74.8662 526.275 76.08 534.205 78.5077C541.232 80.5152 547.432 83.3485 552.807 87.0076C554.108 87.8933 554.84 89.3872 554.84 90.961V101.668C554.84 104.43 552.602 106.668 549.84 106.668H536.535C533.774 106.668 531.535 104.43 531.535 101.668V100.49C531.535 98.7484 530.641 97.1067 529.083 96.3264C523.786 93.6723 517.644 92.3453 510.657 92.3453C503.374 92.3453 497.872 93.4782 494.149 95.744C490.589 98.0098 488.808 101.813 488.808 107.154C488.808 112.009 490.75 115.813 494.635 118.564C498.519 121.153 504.507 123.905 512.599 126.818C514.865 127.465 517.374 128.355 520.125 129.488C528.541 132.725 535.257 135.719 540.274 138.471C545.292 141.222 549.419 144.863 552.655 149.395C555.892 153.927 557.511 159.672 557.511 166.631C557.511 176.989 553.546 184.919 545.615 190.422C537.847 195.925 526.032 198.676 510.172 198.676Z" fill="white"/>
<path d="M367.571 198.676C354.623 198.676 344.751 195.844 337.953 190.179C331.318 184.515 328 176.504 328 166.146C328 154.493 331.641 145.996 338.924 140.655C346.369 135.153 357.051 131.916 370.969 130.945L400.277 129.061C402.909 128.892 404.956 126.708 404.956 124.071V113.951C404.956 106.345 403.338 100.842 400.101 97.4433C396.864 94.0446 391.362 92.3453 383.593 92.3453C378.252 92.3453 373.802 92.8308 370.241 93.8018C367.714 94.4035 365.322 95.3182 363.063 96.546C361.594 97.3445 360.773 98.933 360.773 100.605V101.668C360.773 104.43 358.535 106.668 355.773 106.668H343.196C340.435 106.668 338.196 104.43 338.196 101.668V90.2752C338.196 88.5437 339.087 86.9255 340.588 86.0627C353.578 78.5984 368.075 74.8662 384.079 74.8662C415.152 74.8662 430.689 88.6229 430.689 116.136V169.302C430.689 172.538 431.256 174.885 432.389 176.342C433.684 177.798 435.707 178.527 438.458 178.527H438.799C441.56 178.527 443.799 180.765 443.799 183.527V190.035C443.799 192.796 441.56 195.035 438.799 195.035H419.954C417.582 195.035 415.537 193.368 415.058 191.045L414.91 190.331C414.049 186.156 408.527 184.798 405.272 187.55C401.961 190.349 398.376 192.601 394.517 194.306C387.72 197.22 378.738 198.676 367.571 198.676ZM373.397 181.197C383.108 181.197 390.795 179.093 396.46 174.885C402.124 170.677 404.956 164.285 404.956 155.707V149.447C404.956 146.537 402.481 144.242 399.579 144.462L372.911 146.482C364.981 146.967 359.478 148.667 356.403 151.58C353.328 154.331 351.791 158.782 351.791 164.932C351.791 170.273 353.49 174.319 356.889 177.07C360.288 179.821 365.79 181.197 373.397 181.197Z" fill="white"/>
<defs>
<clipPath id="clip0_287_3223">
<rect width="228" height="243" fill="white"/>
</clipPath>
</defs>
</svg>
