<svg width="1352" height="243" viewBox="0 0 1352 243" fill="none" xmlns="http://www.w3.org/2000/svg">
<g clip-path="url(#clip0_287_3206)">
<path d="M80.3381 171.558C95.0229 176.072 108.732 176.626 113.945 176.648H114.337C123.809 176.655 171.93 174.904 189.839 140.402C197.336 125.944 196.235 111.929 195.761 105.944C193.063 71.2353 165.985 51.6644 160.58 48.096C147.426 39.4077 132.134 35.0044 115.135 35.0044H113.945C97.0268 35.1226 81.7356 39.5259 68.4926 48.1034C60.5068 53.2824 34.2722 72.7425 32.0983 105.93C31.248 118.755 33.5698 130.347 39.0045 140.38C46.9607 155.075 60.8692 165.566 80.3381 171.558ZM80.7004 62.6283C81.2549 62.68 82.3567 62.7686 83.1331 63.5001C83.9538 64.2684 84.3975 65.7239 84.3975 65.7239C84.4345 65.8938 84.4566 66.0637 84.4566 66.2336C84.4566 67.2236 83.8207 68.1619 83.0591 68.9524C81.9574 70.0828 80.8852 70.7551 80.619 70.8955C78.0237 72.2179 68.1894 81.2978 63.1688 93.1926C61.823 96.3768 57.564 106.469 59.4495 119.265C60.4181 125.862 63.1835 134.263 59.9523 135.748C59.2498 136.073 58.5104 135.955 58.1407 135.895C51.8852 134.891 49.2381 120.366 48.9867 118.903C48.8462 118.112 48.7427 117.366 48.6613 116.65C48.6613 116.65 48.3582 114.034 48.4025 111.197C48.6022 97.6919 52.3437 88.2057 52.3437 88.2057C56.965 76.4956 64.3075 70.0089 66.4148 68.2432C66.4148 68.2432 73.8016 62.052 80.7004 62.6283Z" fill="#070707"/>
<path d="M223.571 103.75C222.114 101.29 220.547 99.4504 219.024 97.6699C216.295 94.4635 213.715 91.4344 212.332 85.6126C211.873 83.6695 211.822 82.5761 211.755 80.936C211.703 79.7908 211.644 78.3649 211.422 76.1116C210.432 65.9678 208.08 58.1956 207.385 56.0531C203.814 45.0597 197.514 37.7677 193.321 32.9137C179.524 16.9703 163.538 10.4467 157.519 7.99386C142.486 1.8544 129.28 0.812684 123.639 0.369402C120.134 0.0960445 114.366 0 114.337 0H113.693C113.634 0 107.867 0.0960445 104.369 0.369402C98.7275 0.812684 85.514 1.8544 70.4816 7.99386C64.4628 10.4467 48.4765 16.9703 34.6642 32.9359C30.4938 37.7677 24.1866 45.0597 20.6152 56.0531C19.9201 58.1956 17.5762 65.9678 16.578 76.1116C16.3561 78.3649 16.297 79.7908 16.2452 80.936C16.1787 82.5761 16.1343 83.6695 15.6685 85.6126C14.2932 91.4344 11.7126 94.4635 8.97674 97.6699C7.46093 99.4504 5.88596 101.29 4.42931 103.75C-1.95188 114.544 -0.450862 127.473 2.77301 135.275C3.62334 137.336 6.20391 143.609 11.7496 145.589C12.2893 145.781 13.5611 146.239 14.7664 146.239C15.4319 146.239 15.9495 146.098 16.297 145.825C17.3618 144.983 17.0882 142.404 16.7037 138.836C16.6223 138.046 16.5336 137.211 16.4523 136.317C15.9864 131.411 15.8681 126.335 16.09 121.238C16.09 120.61 16.0456 115.054 17.6871 103.499C23.5063 62.355 54.1035 38.6838 54.4362 38.4326C64.5885 31.0667 75.4949 25.7843 85.9799 23.1689C93.4037 21.3145 101.36 20.5905 104.436 20.3614C107.896 20.1176 113.427 20.0807 113.649 20.0807L115.246 20.0659C118.019 20.0659 120.821 20.1693 123.572 20.3614C126.648 20.5905 134.597 21.3145 142.02 23.1689C152.505 25.7843 163.412 31.0667 173.586 38.4547C173.897 38.6838 204.494 62.355 210.321 103.499C211.955 115.054 211.925 120.61 211.918 121.238C212.14 126.335 212.014 131.411 211.555 136.317C211.467 137.211 211.378 138.046 211.297 138.836C210.912 142.404 210.639 144.983 211.703 145.818C212.058 146.098 212.576 146.239 213.234 146.239C214.439 146.239 215.711 145.781 216.258 145.581C221.796 143.609 224.384 137.336 225.235 135.268C228.451 127.473 229.952 114.544 223.571 103.75Z" fill="#070707"/>
<path d="M196.553 155.762C195.843 155.762 193.676 158.149 191.946 160.069C188.182 164.244 182.489 170.538 173.217 176.375C166.155 180.83 159.619 183.334 156.824 184.406C152.934 185.905 144.83 188.661 134.301 190.272C128.622 191.136 122.825 191.572 117.058 191.572C116.082 191.572 115.091 191.565 114.085 191.535H113.923C112.91 191.565 111.919 191.572 110.95 191.572C105.183 191.572 99.3782 191.136 93.7069 190.272C83.1701 188.661 75.0735 185.905 71.1842 184.406C68.3891 183.342 61.8453 180.83 54.7912 176.375C45.5189 170.538 39.8254 164.244 36.0617 160.069C34.3315 158.149 32.165 155.762 31.4699 155.755C30.1464 156.368 30.5235 165.522 34.1244 175.141C36.4906 181.458 40.6461 187.752 45.8221 192.872C51.0867 198.066 58.5105 202.565 67.8863 206.237C80.3382 211.106 93.9065 213.574 108.214 213.574C110.107 213.574 112.03 213.529 113.937 213.448C113.96 213.448 114.048 213.448 114.07 213.448C115.978 213.529 117.901 213.574 119.794 213.574C134.101 213.574 147.67 211.106 160.122 206.237C169.497 202.565 176.921 198.066 182.186 192.872C187.362 187.76 191.517 181.458 193.883 175.141C197.477 165.522 197.862 156.368 196.553 155.762Z" fill="#070707"/>
<path d="M118.137 230.101H118.034C117.102 230.123 116.155 230.13 115.187 230.13C114.344 230.13 113.493 230.13 112.658 230.108H112.473C111.586 230.13 110.721 230.13 109.87 230.13C104.739 230.13 99.6294 229.857 94.6826 229.31C87.7987 228.549 80.9442 227.271 74.8588 225.601C72.1673 224.848 66.5625 223.296 60.4179 220.511C52.2252 216.802 47.1971 212.798 43.8697 210.146C42.1173 208.749 40.461 207.434 39.6994 207.434H39.692C39.6181 207.456 39.5441 207.634 39.522 207.685C38.7899 209.473 40.0469 214.674 42.1986 218.812C44.2542 222.75 47.87 226.68 52.3657 229.872C56.987 233.152 63.5309 236.004 71.805 238.331C82.8002 241.434 94.8083 243 107.489 243C109.146 243 110.832 242.978 112.495 242.919H112.591C114.24 242.971 115.904 243 117.538 243C118.943 243 120.363 242.978 121.76 242.941C122.662 242.919 123.328 242.372 123.72 241.921C124.614 240.895 125.043 239.358 124.873 237.806C124.393 233.41 121.501 230.101 118.137 230.101Z" fill="#070707"/>
<path d="M187.687 207.449C187.635 207.434 187.576 207.427 187.517 207.427C186.644 207.427 184.855 208.705 182.785 210.19C179.088 212.835 173.512 216.832 164.417 220.533C157.607 223.311 151.382 224.863 148.372 225.616C146.938 225.971 145.984 227.618 146.191 229.362L146.768 234.075C147.071 236.573 148.89 238.449 150.997 238.449C151.293 238.449 151.596 238.412 151.943 238.324C161.157 235.989 168.462 233.137 173.653 229.827C180.078 225.734 183.361 221.545 184.981 218.76C187.31 214.741 188.715 209.614 187.99 207.796C187.872 207.501 187.754 207.471 187.687 207.449Z" fill="#070707"/>
</g>
<path d="M1311.69 198.676C1298.25 198.676 1288.14 195.358 1281.34 188.723C1274.54 182.087 1271.15 172.377 1271.15 159.591V100.987C1271.15 98.2253 1268.91 95.9868 1266.15 95.9868H1257.21C1254.45 95.9868 1252.21 93.7482 1252.21 90.9868V83.5077C1252.21 80.7463 1254.45 78.5077 1257.21 78.5077H1266.15C1268.91 78.5077 1271.15 76.2692 1271.15 73.5077V55.9363C1271.15 53.7632 1272.55 51.8389 1274.62 51.1752L1290.35 46.1288C1293.58 45.0937 1296.88 47.5009 1296.88 50.8898V73.5077C1296.88 76.2692 1299.12 78.5077 1301.88 78.5077H1326.84C1329.6 78.5077 1331.84 80.7463 1331.84 83.5077V90.9868C1331.84 93.7482 1329.6 95.9868 1326.84 95.9868H1301.88C1299.12 95.9868 1296.88 98.2254 1296.88 100.987V161.29C1296.88 168.412 1298.17 173.51 1300.76 176.585C1303.51 179.66 1307.64 181.197 1313.14 181.197C1319.12 181.197 1323.91 180.113 1327.49 177.944C1328.76 177.172 1329.41 175.721 1329.41 174.23V171.146C1329.41 168.384 1331.65 166.146 1334.41 166.146H1346.5C1349.26 166.146 1351.5 168.384 1351.5 171.146V182.281C1351.5 183.749 1350.86 185.153 1349.71 186.062C1344.86 189.885 1339.63 192.876 1334.02 195.035C1327.71 197.462 1320.27 198.676 1311.69 198.676Z" fill="#070707"/>
<path d="M1164.45 198.676C1151.18 198.676 1141.14 195.197 1134.35 188.237C1127.55 181.278 1124.15 171.325 1124.15 158.377V105.455C1124.15 102.38 1123.42 100.114 1121.97 98.6573C1120.67 97.2007 1118.49 96.4724 1115.41 96.4724H1113.37C1110.61 96.4724 1108.37 94.2338 1108.37 91.4724V83.5078C1108.37 80.7464 1110.61 78.5078 1113.37 78.5078H1145.13C1147.89 78.5078 1150.13 80.7464 1150.13 83.5078V158.135C1150.13 173.833 1157.73 181.683 1172.95 181.683C1181.2 181.683 1187.84 179.255 1192.85 174.4C1197.87 169.545 1200.38 162.585 1200.38 153.522V105.455C1200.38 102.38 1199.73 100.114 1198.44 98.6573C1197.3 97.2007 1195.28 96.4724 1192.37 96.4724H1190.57C1187.81 96.4724 1185.57 94.2338 1185.57 91.4724V83.5078C1185.57 80.7464 1187.81 78.5078 1190.57 78.5078H1221.11C1223.87 78.5078 1226.11 80.7464 1226.11 83.5078V168.088C1226.11 171.163 1226.84 173.429 1228.3 174.885C1229.75 176.18 1232.02 176.827 1235.09 176.827C1237.78 176.827 1239.95 179.001 1239.95 181.683V190.035C1239.95 192.796 1237.71 195.035 1234.95 195.035H1213.27C1210.92 195.035 1208.95 193.242 1208.74 190.898C1208.35 186.763 1202.82 185.064 1199.63 187.721C1196.48 190.343 1193.09 192.457 1189.45 194.064C1182.66 197.139 1174.32 198.676 1164.45 198.676Z" fill="#070707"/>
<path d="M1036.4 198.676C1016.66 198.676 1001.77 193.254 991.734 182.411C981.7 171.567 976.683 156.435 976.683 137.014C976.683 117.431 981.619 102.218 991.491 91.3742C1001.53 80.3689 1016.5 74.8662 1036.4 74.8662C1056.31 74.8662 1071.2 80.3689 1081.07 91.3742C1091.11 102.218 1096.12 117.431 1096.12 137.014C1096.12 156.435 1091.11 171.567 1081.07 182.411C1071.04 193.254 1056.15 198.676 1036.4 198.676ZM1036.4 180.469C1048.06 180.469 1056.71 176.908 1062.38 169.787C1068.04 162.666 1070.88 151.742 1070.88 137.014C1070.88 122.124 1068.04 111.119 1062.38 103.998C1056.71 96.715 1048.06 93.0735 1036.4 93.0735C1024.75 93.0735 1016.09 96.715 1010.43 103.998C1004.92 111.119 1002.17 122.124 1002.17 137.014C1002.17 151.742 1004.92 162.666 1010.43 169.787C1016.09 176.908 1024.75 180.469 1036.4 180.469Z" fill="#070707"/>
<path d="M912.927 198.676C901.274 198.676 890.673 196.329 881.124 191.636C871.738 186.943 864.293 179.983 858.79 170.758C853.287 161.533 850.536 150.528 850.536 137.742C850.536 117.35 855.958 101.813 866.801 91.1314C877.807 80.288 892.939 74.8662 912.198 74.8662C922.718 74.8662 931.539 75.9991 938.66 78.2649C945.065 80.3031 951.275 83.4545 957.288 87.719C958.566 88.6254 959.295 90.1102 959.295 91.6772V107.495C959.295 110.256 957.056 112.495 954.295 112.495H941.718C938.956 112.495 936.718 110.256 936.718 107.495V102.06C936.718 100.257 935.756 98.575 934.14 97.7764C931.343 96.3946 928.642 95.3934 926.036 94.7729C922.637 93.9637 918.025 93.5591 912.198 93.5591C901.355 93.5591 892.534 97.2005 885.737 104.483C879.101 111.605 875.784 122.691 875.784 137.742C875.784 151.984 879.587 162.585 887.194 169.544C894.962 176.342 904.834 179.741 916.811 179.741C924.256 179.741 930.568 179.093 935.746 177.798C939.428 176.906 942.955 175.591 946.329 173.852C948.844 172.556 952.015 173.251 953.483 175.67L957.336 182.023C958.709 184.286 958.089 187.245 955.822 188.61C950.287 191.942 944.648 194.327 938.902 195.763C931.943 197.705 923.285 198.676 912.927 198.676Z" fill="#070707"/>
<path d="M778.396 198.676C767.067 198.676 756.305 197.057 746.109 193.821C736.835 190.876 728.766 186.995 721.902 182.176C720.619 181.276 719.89 179.79 719.89 178.222V161.92C719.89 159.159 722.129 156.92 724.89 156.92H740.866C743.627 156.92 745.866 159.159 745.866 161.92V169.869C745.866 171.625 746.778 173.272 748.343 174.069C751.877 175.869 755.988 177.355 760.675 178.526C766.663 179.983 772.732 180.711 778.882 180.711C788.592 180.711 795.956 178.688 800.973 174.642C805.991 170.434 808.499 164.527 808.499 156.92C808.499 151.579 807.124 147.129 804.372 143.568C801.783 140.008 798.06 136.933 793.205 134.343C788.35 131.754 781.633 128.76 773.056 125.361C761.079 120.667 751.449 116.217 744.167 112.009C736.884 107.801 731.219 102.865 727.173 97.2002C723.289 91.3739 721.347 84.3337 721.347 76.0797C721.347 62.3231 726.607 51.9651 737.126 45.0059C747.646 37.8848 761.16 34.3242 777.668 34.3242C788.512 34.3242 798.384 35.8617 807.285 38.9368C815.45 41.7067 822.563 45.2647 828.626 49.6106C829.883 50.5113 830.591 51.9798 830.591 53.5258V68.6521C830.591 71.4135 828.352 73.6521 825.591 73.6521H809.615C806.854 73.6521 804.615 71.4135 804.615 68.6521V61.4538C804.615 59.6856 803.692 58.0259 802.104 57.2497C795.335 53.9424 786.785 52.2888 776.454 52.2888C767.067 52.2888 759.703 54.15 754.363 57.8724C749.022 61.5948 746.351 67.4211 746.351 75.3514C746.351 80.8541 748.051 85.4666 751.449 89.189C754.848 92.9114 758.732 95.8246 763.102 97.9285C767.472 100.032 774.269 102.946 783.494 106.668C795.795 111.523 805.262 115.812 811.898 119.535C818.533 123.257 823.793 128.031 827.678 133.858C831.562 139.522 833.504 146.886 833.504 155.949C833.504 164.203 831.319 171.567 826.949 178.041C822.741 184.353 816.51 189.37 808.256 193.092C800.002 196.815 790.049 198.676 778.396 198.676Z" fill="#070707"/>
<path d="M572.279 182.798C572.279 180.037 574.517 177.798 577.279 177.798H578.833C582.07 177.798 584.255 177.232 585.388 176.099C586.683 174.804 587.33 172.619 587.33 169.544V59.329C587.33 56.254 586.764 54.15 585.631 53.0171C584.498 51.7223 582.394 51.075 579.319 51.075H578.735C575.974 51.075 573.735 48.8364 573.735 46.075V39.3242C573.735 36.5628 575.974 34.3242 578.735 34.3242H620.93C623.691 34.3242 625.93 36.5628 625.93 39.3242V46.075C625.93 48.8364 623.691 51.075 620.93 51.075H619.132C616.219 51.075 614.196 51.7223 613.063 53.0171C611.93 54.15 611.364 56.254 611.364 59.329V119.516C611.364 123.839 616.478 126.124 619.699 123.242L644.279 101.241C646.528 99.2274 645.104 95.5009 642.085 95.5009C640.269 95.5009 638.796 94.0283 638.796 92.2118V83.5074C638.796 80.7459 641.035 78.5074 643.796 78.5074H689.147C691.908 78.5074 694.147 80.7459 694.147 83.5074V90.5009C694.147 93.2623 691.908 95.5009 689.147 95.5009H682.979C680.39 95.5009 678.448 95.8246 677.153 96.472C675.858 97.1193 674.078 98.4141 671.812 100.356L650.888 118.744C649.084 120.329 648.662 122.973 649.883 125.042L677.153 171.243C678.772 173.833 680.309 175.613 681.766 176.584C683.384 177.393 685.812 177.798 689.049 177.798H694.245C697.006 177.798 699.245 180.037 699.245 182.798V190.034C699.245 192.796 697.006 195.034 694.245 195.034H669.535C667.784 195.034 666.161 194.118 665.256 192.62L633.891 140.699C632.275 138.024 628.629 137.47 626.292 139.544L613.045 151.301C611.976 152.25 611.364 153.611 611.364 155.041V169.544C611.364 172.619 611.93 174.804 613.063 176.099C614.358 177.232 616.624 177.798 619.861 177.798H622.386C625.148 177.798 627.386 180.037 627.386 182.798V190.034C627.386 192.796 625.148 195.034 622.386 195.034H577.279C574.517 195.034 572.279 192.796 572.279 190.034V182.798Z" fill="#070707"/>
<path d="M507.172 198.676C488.63 198.676 473.062 194.469 460.469 186.053C459.137 185.163 458.376 183.647 458.376 182.045V170.66C458.376 167.899 460.615 165.66 463.376 165.66H477.167C479.928 165.66 482.167 167.899 482.167 170.66V172.504C482.167 174.28 483.098 175.945 484.694 176.722C490.825 179.705 498.075 181.197 506.443 181.197C513.726 181.197 519.148 180.064 522.709 177.798C526.431 175.533 528.292 171.81 528.292 166.631C528.292 163.233 527.321 160.481 525.379 158.377C523.599 156.111 521.09 154.25 517.853 152.794C514.616 151.175 508.224 148.424 498.675 144.54C489.126 140.655 481.762 137.338 476.583 134.586C471.566 131.673 467.439 128.032 464.202 123.662C461.127 119.292 459.59 113.789 459.59 107.154C459.59 96.4723 463.717 88.461 471.971 83.1202C480.225 77.6175 491.473 74.8662 505.715 74.8662C514.778 74.8662 523.275 76.08 531.205 78.5077C538.232 80.5152 544.432 83.3485 549.807 87.0076C551.108 87.8933 551.84 89.3872 551.84 90.961V101.668C551.84 104.43 549.602 106.668 546.84 106.668H533.535C530.774 106.668 528.535 104.43 528.535 101.668V100.49C528.535 98.7484 527.641 97.1067 526.083 96.3264C520.786 93.6723 514.644 92.3453 507.657 92.3453C500.374 92.3453 494.872 93.4782 491.149 95.744C487.589 98.0098 485.808 101.813 485.808 107.154C485.808 112.009 487.75 115.813 491.635 118.564C495.519 121.153 501.507 123.905 509.599 126.818C511.865 127.465 514.374 128.355 517.125 129.488C525.541 132.725 532.257 135.719 537.274 138.471C542.292 141.222 546.419 144.863 549.655 149.395C552.892 153.927 554.511 159.672 554.511 166.631C554.511 176.989 550.546 184.919 542.615 190.422C534.847 195.925 523.032 198.676 507.172 198.676Z" fill="#070707"/>
<path d="M364.571 198.676C351.623 198.676 341.751 195.844 334.953 190.179C328.318 184.515 325 176.504 325 166.146C325 154.493 328.641 145.996 335.924 140.655C343.369 135.153 354.051 131.916 367.969 130.945L397.277 129.061C399.909 128.892 401.956 126.708 401.956 124.071V113.951C401.956 106.345 400.338 100.842 397.101 97.4433C393.864 94.0446 388.362 92.3453 380.593 92.3453C375.252 92.3453 370.802 92.8308 367.241 93.8018C364.714 94.4035 362.322 95.3182 360.063 96.546C358.594 97.3445 357.773 98.933 357.773 100.605V101.668C357.773 104.43 355.535 106.668 352.773 106.668H340.196C337.435 106.668 335.196 104.43 335.196 101.668V90.2752C335.196 88.5437 336.087 86.9255 337.588 86.0627C350.578 78.5984 365.075 74.8662 381.079 74.8662C412.152 74.8662 427.689 88.6229 427.689 116.136V169.302C427.689 172.538 428.256 174.885 429.389 176.342C430.684 177.798 432.707 178.527 435.458 178.527H435.799C438.56 178.527 440.799 180.765 440.799 183.527V190.035C440.799 192.796 438.56 195.035 435.799 195.035H416.954C414.582 195.035 412.537 193.368 412.058 191.045L411.91 190.331C411.049 186.156 405.527 184.798 402.272 187.55C398.961 190.349 395.376 192.601 391.517 194.306C384.72 197.22 375.738 198.676 364.571 198.676ZM370.397 181.197C380.108 181.197 387.795 179.093 393.46 174.885C399.124 170.677 401.956 164.285 401.956 155.707V149.447C401.956 146.537 399.481 144.242 396.579 144.462L369.911 146.482C361.981 146.967 356.478 148.667 353.403 151.58C350.328 154.331 348.791 158.782 348.791 164.932C348.791 170.273 350.49 174.319 353.889 177.07C357.288 179.821 362.79 181.197 370.397 181.197Z" fill="#070707"/>
<defs>
<clipPath id="clip0_287_3206">
<rect width="228" height="243" fill="white"/>
</clipPath>
</defs>
</svg>
